<?xml version="1.0" encoding="UTF-8" standalone="no"?>
<!DOCTYPE svg PUBLIC "-//W3C//DTD SVG 1.1//EN" "http://www.w3.org/Graphics/SVG/1.1/DTD/svg11.dtd">
<svg width="100%" height="100%" viewBox="0 0 1024 1024" version="1.1" xmlns="http://www.w3.org/2000/svg" xmlns:xlink="http://www.w3.org/1999/xlink" xml:space="preserve" xmlns:serif="http://www.serif.com/" style="fill-rule:evenodd;clip-rule:evenodd;stroke-linejoin:round;stroke-miterlimit:2;">
    <rect id="Artboard1" x="0" y="0" width="1024" height="1024" style="fill:none;"/>
    <g id="Artboard11" serif:id="Artboard1">
        <g id="synaptical-logo-connections">
            <g id="synaptical-logo-shield" transform="matrix(4.4413,0,0,4.4413,-666.815,-793.808)">
                <circle cx="265.421" cy="294.015" r="115.282" style="fill:none;"/>
            </g>
            <g id="synaptical-logo-apps">
                <g id="synaptical-logo-app-2" transform="matrix(-1.37673,-2.38457,1.64434,-0.949361,14.7666,1372.93)">
                    <path d="M166.577,334.306C158.561,336.565 151.014,340.737 144.172,346.483L144.172,324.983C161.81,305.757 173.226,275.163 173.226,240.732C173.226,234.919 172.901,229.215 172.275,223.657C168.675,213.667 164.003,204.617 158.48,196.828C161.448,198.197 164.499,199.296 167.618,200.106C171.796,201.192 176.098,201.758 180.49,201.758C184.881,201.758 189.183,201.192 193.361,200.106C196.48,199.296 199.531,198.197 202.499,196.828C196.976,204.617 192.304,213.667 188.704,223.657C188.079,229.215 187.753,234.919 187.753,240.732C187.753,275.163 199.169,305.757 216.807,324.983L216.807,346.483C209.965,340.737 202.418,336.565 194.402,334.306C189.898,333.037 185.247,332.372 180.49,332.372C175.732,332.372 171.081,333.037 166.577,334.306Z" style="fill:rgb(123,92,255);"/>
                </g>
                <g id="synaptical-logo-app-1" transform="matrix(-1.37673,2.38457,-1.64434,-0.949361,1506.21,512.151)">
                    <path d="M166.577,334.306C158.561,336.565 151.014,340.737 144.172,346.483L144.172,324.983C161.81,305.757 173.226,275.163 173.226,240.732C173.226,234.919 172.901,229.215 172.275,223.657C168.675,213.667 164.003,204.617 158.48,196.828C161.448,198.197 164.499,199.296 167.618,200.106C171.796,201.192 176.098,201.758 180.49,201.758C184.881,201.758 189.183,201.192 193.361,200.106C196.48,199.296 199.531,198.197 202.499,196.828C196.976,204.617 192.304,213.667 188.704,223.657C188.079,229.215 187.753,234.919 187.753,240.732C187.753,275.163 199.169,305.757 216.807,324.983L216.807,346.483C209.965,340.737 202.418,336.565 194.402,334.306C189.898,333.037 185.247,332.372 180.49,332.372C175.732,332.372 171.081,333.037 166.577,334.306Z" style="fill:rgb(123,92,255);"/>
                </g>
                <g id="synaptical-logo-app-0" transform="matrix(2.75347,0,0,1.89872,15.0275,-349.083)">
                    <path d="M166.577,334.306C158.561,336.565 151.014,340.737 144.172,346.483L144.172,324.983C161.81,305.757 173.226,275.163 173.226,240.732C173.226,234.919 172.901,229.215 172.275,223.657C168.675,213.667 164.003,204.617 158.48,196.828C161.448,198.197 164.499,199.296 167.618,200.106C171.796,201.192 176.098,201.758 180.49,201.758C184.881,201.758 189.183,201.192 193.361,200.106C196.48,199.296 199.531,198.197 202.499,196.828C196.976,204.617 192.304,213.667 188.704,223.657C188.079,229.215 187.753,234.919 187.753,240.732C187.753,275.163 199.169,305.757 216.807,324.983L216.807,346.483C209.965,340.737 202.418,336.565 194.402,334.306C189.898,333.037 185.247,332.372 180.49,332.372C175.732,332.372 171.081,333.037 166.577,334.306Z" style="fill:rgb(123,92,255);"/>
                </g>
            </g>
            <g id="synaptical-logo-services" transform="matrix(0.5,0.866025,-0.866025,0.5,699.405,-187.405)">
                <g id="synaptical-logo-service-2" transform="matrix(-1.37673,-2.38457,1.64434,-0.949361,14.7666,1372.93)">
                    <path d="M180.49,272.332C180.49,242.734 172.053,215.971 158.48,196.828C165.424,200.03 172.819,201.758 180.49,201.758C188.161,201.758 195.555,200.03 202.499,196.828C188.926,215.971 180.49,242.734 180.49,272.332ZM166.577,334.306C175.325,316.911 180.49,295.489 180.49,272.332C180.49,295.489 185.654,316.911 194.402,334.306C189.898,333.037 185.247,332.372 180.49,332.372C175.732,332.372 171.081,333.037 166.577,334.306Z" style="fill:rgb(75,91,124);"/>
                </g>
                <g id="synaptical-logo-service-1" transform="matrix(-1.37673,2.38457,-1.64434,-0.949361,1506.21,512.151)">
                    <path d="M180.49,272.332C180.49,242.734 172.053,215.971 158.48,196.828C165.424,200.03 172.819,201.758 180.49,201.758C188.161,201.758 195.555,200.03 202.499,196.828C188.926,215.971 180.49,242.734 180.49,272.332ZM166.577,334.306C175.325,316.911 180.49,295.489 180.49,272.332C180.49,295.489 185.654,316.911 194.402,334.306C189.898,333.037 185.247,332.372 180.49,332.372C175.732,332.372 171.081,333.037 166.577,334.306Z" style="fill:rgb(75,91,124);"/>
                </g>
                <g id="synaptical-logo-service-0" transform="matrix(2.75347,-4.44089e-16,1.11022e-16,1.89872,15.0275,-349.083)">
                    <path d="M180.49,272.332C180.49,242.734 172.053,215.971 158.48,196.828C165.424,200.03 172.819,201.758 180.49,201.758C188.161,201.758 195.555,200.03 202.499,196.828C188.926,215.971 180.49,242.734 180.49,272.332ZM166.577,334.306C175.325,316.911 180.49,295.489 180.49,272.332C180.49,295.489 185.654,316.911 194.402,334.306C189.898,333.037 185.247,332.372 180.49,332.372C175.732,332.372 171.081,333.037 166.577,334.306Z" style="fill:rgb(75,91,124);"/>
                </g>
            </g>
        </g>
        <g id="synaptical-logo-ori" transform="matrix(1.73488,0,0,1.73488,51.5256,1.91862)">
            <circle cx="265.421" cy="294.015" r="115.282" style="fill:rgb(32,195,235);"/>
        </g>
    </g>
</svg>
